<svg xmlns="http://www.w3.org/2000/svg" width="750" height="500" viewBox="0 0 750 500"><title>Flag french language FR QC</title><rect width="750" height="500" fill="#fff"/><path d="M567.813,83.281c-4.375-1.64-10.079-.859-15.313,4.532-6.484,6.64-8.359,25,10.625,28.515-2.031-2.969-1.8-9.531,2.188-11.8,3.046-1.562,6.562-.937,8.125.391,2.263,1.332,4.408,5.162,4.994,9.457l6.012-4.008C582.835,96.03,576.589,86.435,567.813,83.281Z" fill="none"/><path d="M607.578,74.922c3.75-9.609,1.485-21.484-5.078-32.422a86.063,86.063,0,0,0-8.75-11.25A86.063,86.063,0,0,0,585,42.5c-6.562,10.938-8.828,22.813-5.078,32.422,5.657,15.707,8.623,22.378,9.688,32.005l9.3-6.2C600.428,93.832,603.2,87.089,607.578,74.922Z" fill="none"/><polygon points="569.609 116.641 569.609 120.26 575.039 116.641 569.609 116.641" fill="none"/><path d="M165,355a86.063,86.063,0,0,0-8.75-11.25A86.063,86.063,0,0,0,147.5,355c-6.562,10.938-8.828,22.813-5.078,32.422,2.068,5.742,3.776,10.275,5.164,14.187l22.856-15.237C173.643,376.955,171.327,365.545,165,355Z" fill="none"/><path d="M563.125,428.828c-2.031-2.969-1.8-9.531,2.188-11.8,3.046-1.562,6.562-.937,8.125.391,2.656,1.562,5.156,6.562,5.156,11.719h-8.985v10.078h18.672c-.234,5.234-3.047,9.3-8.281,11.562.625,2.188,3.828,6.641,8.2,6.328.86,4.688,1.641,7.344,5.547,11.641,3.906-4.3,4.688-6.953,5.547-11.641,4.375.313,7.578-4.14,8.2-6.328-5.234-2.265-8.047-6.328-8.281-11.562h18.672V429.141h-8.985c0-5.157,2.5-10.157,5.157-11.719,1.562-1.328,5.078-1.953,8.125-.391,3.984,2.266,4.218,8.828,2.187,11.8,18.984-3.515,17.109-21.875,10.625-28.515-5.234-5.391-10.937-6.172-15.312-4.532-10,3.594-16.719,15.547-17.032,33.36h-5.234c0-16.172,2.812-21.328,10.156-41.719,3.75-9.609,1.485-21.484-5.078-32.422a86.063,86.063,0,0,0-8.75-11.25A86.063,86.063,0,0,0,585,355c-6.562,10.938-8.828,22.813-5.078,32.422,7.344,20.391,10.156,25.547,10.156,41.719h-5.234c-.313-17.813-7.031-29.766-17.031-33.36-4.375-1.64-10.079-.859-15.313,4.532C546.016,406.953,544.141,425.313,563.125,428.828Z" fill="none"/><path d="M130.313,395.781c-4.375-1.64-10.079-.859-15.313,4.532-4.791,4.906-7.055,16.2-.258,23.192l26.847-17.9A21.973,21.973,0,0,0,130.313,395.781Z" fill="none"/><path d="M619.688,83.281c-5.144,1.849-9.409,5.923-12.391,11.855l18.666-12.445A12.125,12.125,0,0,0,619.688,83.281Z" fill="none"/><path d="M125.625,428.828c-2.031-2.969-1.8-9.531,2.188-11.8,3.046-1.562,6.562-.937,8.125.391,2.656,1.562,5.156,6.562,5.156,11.719h-8.985v10.078h18.672c-.234,5.234-3.047,9.3-8.281,11.562.625,2.188,3.828,6.641,8.2,6.328.86,4.688,1.641,7.344,5.547,11.641,3.906-4.3,4.688-6.953,5.547-11.641,4.375.313,7.578-4.14,8.2-6.328-5.234-2.265-8.047-6.328-8.281-11.562h18.672V429.141h-8.985c0-5.157,2.5-10.157,5.157-11.719,1.562-1.328,5.078-1.953,8.125-.391,3.984,2.266,4.218,8.828,2.187,11.8,18.984-3.515,17.109-21.875,10.625-28.515-5.234-5.391-10.937-6.172-15.312-4.532-10,3.594-16.719,15.547-17.032,33.36h-5.234c0-16.172,2.812-21.328,10.156-41.719.135-.345.245-.7.364-1.05l-22.856,15.237c3.54,9.981,4.992,15.914,4.992,27.532h-5.234c-.171-9.737-2.266-17.707-5.755-23.534l-26.847,17.9C117.144,425.975,120.668,427.91,125.625,428.828Z" fill="none"/><path d="M182.188,83.281c-10,3.594-16.719,15.547-17.032,33.36h-5.234c0-16.172,2.812-21.328,10.156-41.719,3.75-9.609,1.485-21.484-5.078-32.422a86.063,86.063,0,0,0-8.75-11.25A86.063,86.063,0,0,0,147.5,42.5c-6.562,10.938-8.828,22.813-5.078,32.422,7.344,20.391,10.156,25.547,10.156,41.719h-5.234c-.313-17.813-7.031-29.766-17.031-33.36-4.375-1.64-10.079-.859-15.313,4.532-6.484,6.64-8.359,25,10.625,28.515-2.031-2.969-1.8-9.531,2.188-11.8,3.046-1.562,6.562-.937,8.125.391,2.656,1.562,5.156,6.562,5.156,11.719h-8.985v10.078h18.672c-.234,5.234-3.047,9.3-8.281,11.562.625,2.188,3.828,6.641,8.2,6.328.86,4.688,1.641,7.344,5.547,11.641,3.906-4.3,4.688-6.953,5.547-11.641,4.375.313,7.578-4.14,8.2-6.328-5.234-2.265-8.047-6.328-8.281-11.562h18.672V116.641h-8.985c0-5.157,2.5-10.157,5.157-11.719,1.562-1.328,5.078-1.953,8.125-.391,3.984,2.266,4.218,8.828,2.187,11.8,18.984-3.515,17.109-21.875,10.625-28.515C192.266,82.422,186.563,81.641,182.188,83.281Z" fill="none"/><path d="M602.656,116.641h-5.234a70.9,70.9,0,0,1,1.486-15.913l-9.3,6.2a87.713,87.713,0,0,1,.468,9.714h-5.234q-.059-3.272-.4-6.27l-6.012,4.008a16.821,16.821,0,0,1,.162,2.262h-3.555l-5.43,3.619v6.459h18.672c-.234,5.234-3.047,9.3-8.281,11.562.625,2.188,3.828,6.641,8.2,6.328.86,4.688,1.641,7.344,5.547,11.641,3.906-4.3,4.688-6.953,5.547-11.641,4.375.313,7.578-4.14,8.2-6.328-5.234-2.265-8.047-6.328-8.281-11.562h18.672V116.641h-8.985c0-5.157,2.5-10.157,5.157-11.719,1.562-1.328,5.078-1.953,8.125-.391,3.984,2.266,4.218,8.828,2.187,11.8,18.984-3.515,17.109-21.875,10.625-28.515a16.463,16.463,0,0,0-9.037-5.122L607.3,95.136C604.481,100.736,602.808,107.99,602.656,116.641Z" fill="none"/><path d="M312.5,0H0V187.5H312.5ZM186.875,116.328c2.031-2.969,1.8-9.531-2.187-11.8-3.047-1.562-6.563-.937-8.125.391-2.657,1.562-5.157,6.562-5.157,11.719h8.985v10.078H161.719c.234,5.234,3.047,9.3,8.281,11.562-.625,2.188-3.828,6.641-8.2,6.328-.859,4.688-1.641,7.344-5.547,11.641-3.906-4.3-4.687-6.953-5.547-11.641-4.375.313-7.578-4.14-8.2-6.328,5.234-2.265,8.047-6.328,8.281-11.562H132.109V116.641h8.985c0-5.157-2.5-10.157-5.156-11.719-1.563-1.328-5.079-1.953-8.125-.391-3.985,2.266-4.219,8.828-2.188,11.8C106.641,112.813,108.516,94.453,115,87.813c5.234-5.391,10.938-6.172,15.313-4.532,10,3.594,16.718,15.547,17.031,33.36h5.234c0-16.172-2.812-21.328-10.156-41.719-3.75-9.609-1.484-21.484,5.078-32.422a86.063,86.063,0,0,1,8.75-11.25A86.063,86.063,0,0,1,165,42.5c6.563,10.938,8.828,22.813,5.078,32.422-7.344,20.391-10.156,25.547-10.156,41.719h5.234c.313-17.813,7.032-29.766,17.032-33.36,4.375-1.64,10.078-.859,15.312,4.532C203.984,94.453,205.859,112.813,186.875,116.328Z" fill="#003da5"/><path d="M578.432,114.379l-3.393,2.262h3.555A16.821,16.821,0,0,0,578.432,114.379Z" fill="#003da5"/><path d="M569.609,116.641h5.43l3.393-2.262c-.586-4.3-2.731-8.125-4.994-9.457-1.563-1.328-5.079-1.953-8.125-.391-3.985,2.266-4.219,8.828-2.188,11.8-18.984-3.515-17.109-21.875-10.625-28.515,5.234-5.391,10.938-6.172,15.313-4.532,8.776,3.154,15.022,12.749,16.631,27.09l5.166-3.444c-1.065-9.627-4.031-16.3-9.688-32.005-3.75-9.609-1.484-21.484,5.078-32.422a86.063,86.063,0,0,1,8.75-11.25A86.063,86.063,0,0,1,602.5,42.5c6.563,10.938,8.828,22.813,5.078,32.422-4.382,12.167-7.15,18.91-8.67,25.806l8.389-5.592c2.982-5.932,7.247-10.006,12.391-11.855a12.125,12.125,0,0,1,6.275-.59L750,0H437.5V187.5h31.25l100.859-67.24Z" fill="#003da5"/><path d="M0,500l114.742-76.495c-6.8-6.987-4.533-18.286.258-23.192,5.234-5.391,10.938-6.172,15.313-4.532a21.973,21.973,0,0,1,11.276,9.826l6-4c-1.388-3.912-3.1-8.445-5.164-14.187-3.75-9.609-1.484-21.484,5.078-32.422a86.063,86.063,0,0,1,8.75-11.25A86.063,86.063,0,0,1,165,355c6.327,10.545,8.643,21.955,5.442,31.372L281.25,312.5H0Z" fill="#003da5"/><polygon points="500 166.667 500 500 750 500 750 0 500 166.667" fill="#ed2939"/><polygon points="250 500 250 333.333 0 500 250 500" fill="#002395"/></svg>