<?xml version="1.0" encoding="UTF-8" standalone="no"?>
<!-- Generator: Adobe Illustrator 16.0.0, SVG Export Plug-In . SVG Version: 6.00 Build 0)  -->

<svg
   xmlns:dc="http://purl.org/dc/elements/1.1/"
   xmlns:cc="http://creativecommons.org/ns#"
   xmlns:rdf="http://www.w3.org/1999/02/22-rdf-syntax-ns#"
   xmlns:svg="http://www.w3.org/2000/svg"
   xmlns="http://www.w3.org/2000/svg"
   xmlns:xlink="http://www.w3.org/1999/xlink"
   xmlns:sodipodi="http://sodipodi.sourceforge.net/DTD/sodipodi-0.dtd"
   xmlns:inkscape="http://www.inkscape.org/namespaces/inkscape"
   version="1.1"
   id="レイヤー_1"
   x="0px"
   y="0px"
   width="128px"
   height="128px"
   viewBox="0 0 128 128"
   enable-background="new 0 0 128 128"
   xml:space="preserve"
   inkscape:version="0.48.4 r9939"
   sodipodi:docname="0.svg"><metadata
     id="metadata79"><rdf:RDF><cc:Work
         rdf:about=""><dc:format>image/svg+xml</dc:format><dc:type
           rdf:resource="http://purl.org/dc/dcmitype/StillImage" /></cc:Work></rdf:RDF></metadata><defs
     id="defs77"><defs
       id="defs7"><path
         id="SVGID_1_"
         d="m 100.96,10.37 c -1.56,0 -3.08,0.61 -4.2,1.75 C 87.2,21.68 78.82,23.49 66.69,23.49 63.01,23.49 58.97,23.3 54.68,23.12 51.32,22.97 47.84,22.81 44.07,22.72 43.41,22.7 42.76,22.7 42.12,22.7 11.45,22.7 1.63,41.25 1.23,42.04 0.71,43.06 0.5,44.2 0.61,45.33 l 6.72,66.95 c 0.22,2.22 1.67,4.13 3.75,4.95 0.7,0.27 1.43,0.41 2.16,0.41 1.43,0 2.84,-0.52 3.95,-1.51 0.1,-0.09 12.43,-10.63 32.13,-10.63 2.52,0 5.09,0.18 7.63,0.52 9.27,1.23 16.04,1.78 21.95,1.78 18.93,0 32.93,-6.1 46.81,-20.39 1.51,-1.55 2.06,-3.81 1.42,-5.88 L 106.62,14.58 c -0.61,-1.99 -2.22,-3.52 -4.25,-4.03 -0.45,-0.12 -0.93,-0.18 -1.41,-0.18 l 0,0 z"
         inkscape:connector-curvature="0" /></defs><clipPath
       id="SVGID_2_"><use
         xlink:href="#SVGID_1_"
         overflow="visible"
         id="use13"
         style="overflow:visible"
         x="0"
         y="0"
         width="128"
         height="128" /></clipPath></defs><sodipodi:namedview
     pagecolor="#ffffff"
     bordercolor="#666666"
     borderopacity="1"
     objecttolerance="10"
     gridtolerance="10"
     guidetolerance="10"
     inkscape:pageopacity="0"
     inkscape:pageshadow="2"
     inkscape:window-width="1301"
     inkscape:window-height="744"
     id="namedview75"
     showgrid="false"
     inkscape:zoom="4.6640625"
     inkscape:cx="64"
     inkscape:cy="64"
     inkscape:window-x="65"
     inkscape:window-y="24"
     inkscape:window-maximized="1"
     inkscape:current-layer="レイヤー_1" /><use
     xlink:href="#SVGID_1_"
     overflow="visible"
     id="use10"
     style="fill:#008000;overflow:visible;fill-opacity:1"
     x="0"
     y="0"
     width="128"
     height="128" /><path
     d="m 39.19757,22.865613 9.019996,41.904712 c 0,0 -27.097232,-2.895128 -44.0233058,15.032877 L 0.34659107,39.722036 C 0.33837807,39.713836 6.9879341,20.582523 39.19757,22.865613 z"
     id="path27"
     inkscape:connector-curvature="0"
     style="fill:#ffffff;stroke:#008000;stroke-width:0.24637662;stroke-miterlimit:4;stroke-opacity:1;stroke-dasharray:none"
     sodipodi:nodetypes="ccccc" /><path
     d="m 16.557955,36.286235 c 0.173997,-0.97057 0.877832,-1.190697 1.52472,-0.413328 l 3.524478,4.126116 c 0.646887,0.77737 2.031794,1.293177 3.048967,1.157464 l 5.471195,-0.639229 c 1.017175,-0.135715 1.381281,0.478 0.852512,1.329975 l -2.917288,4.591346 c -0.570201,0.817794 -0.655623,2.314041 -0.19052,3.185155 l 2.432224,5.070295 c 0.46873,0.908922 0.028,1.485367 -0.953447,1.197949 l -5.436541,-1.386322 c -0.981448,-0.287419 -2.354938,0.111401 -3.087249,0.830281 l -3.972805,3.92948 c -0.73231,0.718876 -1.366238,0.474437 -1.426339,-0.54999 l -0.426883,-5.644184 c -0.0601,-1.024426 -0.863927,-2.244606 -1.742829,-2.656325 L 8.438414,47.901087 C 7.51445,47.41738 7.5626,46.725966 8.478774,46.332852 l 5.137109,-2.133391 c 0.91255,-0.430923 1.835441,-1.54963 2.005812,-2.558007 l 0.936261,-5.355219 z"
     id="path47"
     inkscape:connector-curvature="0"
     style="fill:#008000" /></svg>