<?xml version="1.0" encoding="UTF-8" standalone="no"?>
<!-- Created with Inkscape (http://www.inkscape.org/) -->

<svg
   xmlns:dc="http://purl.org/dc/elements/1.1/"
   xmlns:cc="http://creativecommons.org/ns#"
   xmlns:rdf="http://www.w3.org/1999/02/22-rdf-syntax-ns#"
   xmlns:svg="http://www.w3.org/2000/svg"
   xmlns="http://www.w3.org/2000/svg"
   xmlns:sodipodi="http://sodipodi.sourceforge.net/DTD/sodipodi-0.dtd"
   xmlns:inkscape="http://www.inkscape.org/namespaces/inkscape"
   version="1.1"
   width="1001.8021"
   height="1001.8017"
   id="svg2"
   sodipodi:docname="0.svg"
   inkscape:version="0.92.3 (2405546, 2018-03-11)">
  <metadata
     id="metadata12">
    <rdf:RDF>
      <cc:Work
         rdf:about="">
        <dc:format>image/svg+xml</dc:format>
        <dc:type
           rdf:resource="http://purl.org/dc/dcmitype/StillImage" />
      </cc:Work>
    </rdf:RDF>
  </metadata>
  <sodipodi:namedview
     pagecolor="#ffffff"
     bordercolor="#666666"
     borderopacity="1"
     objecttolerance="10"
     gridtolerance="10"
     guidetolerance="10"
     inkscape:pageopacity="0"
     inkscape:pageshadow="2"
     inkscape:window-width="1299"
     inkscape:window-height="713"
     id="namedview10"
     showgrid="false"
     inkscape:zoom="0.28348924"
     inkscape:cx="500.90106"
     inkscape:cy="641.99968"
     inkscape:window-x="67"
     inkscape:window-y="27"
     inkscape:window-maximized="1"
     inkscape:current-layer="svg2" />
  <defs
     id="defs4" />
  <path
     d="m 505.525,0 496.2771,0 0,719.91648 -496.2771,0 L 505.525,0 z"
     id="czerwony_prostokat"
     style="fill:#008000;fill-opacity:1;fill-rule:nonzero;stroke:none" />
  <path
     d="m 379.10972,545.34781 c -17.74931,0.0254 -32.89202,0.59777 -42.76115,1.99761 -26.46025,3.74151 -38.56819,43.77645 -14.04566,62.54991 22.54494,17.26129 27.23632,109.47458 -90.51629,98.8813 -92.16332,-8.324 -76.77681,-78.67255 -53.31097,-91.51514 22.54092,-12.33718 21.50716,-50.7371 -25.34457,-61.67597 -50.57527,-11.78784 -98.148641,8.6586 -151.630412,17.85358 l 0,426.8626 516.504742,0 c -3.08784,-29.73817 -5.12069,-62.66596 -4.93157,-94.6364 5.71315,-48.43785 38.24558,-57.29771 67.10692,-14.79474 19.0531,19.0012 120.94176,23.02186 109.24381,-76.221 -9.18897,-77.67676 -95.21016,-62.54493 -103.93768,-50.93887 -23.73551,33.78745 -62.7906,32.69677 -68.66756,-18.97722 3.72539,-102.02169 18.1136,-174.06142 21.72393,-190.771 -30.66323,-3.7422 -106.64375,-8.6904 -159.43354,-8.61466 z"
     id="lewy_czerwony_puzel"
     style="fill:#008000;fill-opacity:1;stroke:#ffffff;stroke-width:3;stroke-opacity:1" />
  <path
     d="m 1.5000477,1.5010356 535.3891023,0 C 527.3386,23.103111 512.57833,114.12982 513.07773,198.5585 c 5.71314,48.43784 38.26005,57.30121 67.12139,14.79822 19.05314,-19.00118 120.89484,-22.9944 109.19689,76.24848 -9.18896,77.67675 -95.15774,62.52694 -103.88526,50.92088 -23.7355,-33.78745 -62.79659,-32.68477 -68.67353,18.9892 4.26887,116.90567 22.5749,194.54447 22.5749,194.54447 -40.17177,-5.00399 -163.58757,-12.29723 -203.06417,-6.69796 -26.46022,3.74151 -38.59364,43.72953 -14.07108,62.50299 22.5449,17.26126 27.28323,109.52651 -90.46938,98.93324 -92.16331,-8.32401 -76.77779,-78.69754 -53.31197,-91.54013 22.54092,-12.33719 21.47619,-50.7371 -25.37553,-61.67597 -50.57527,-11.78784 -98.134163,8.63763 -151.6159347,17.83261 L 1.5,1.5010356 z"
     id="lewy_bialy_puzel"
     style="fill:#fff;fill-opacity:1;stroke:#008000;stroke-width:3;stroke-opacity:1" />
  <path
     d="m 697.9768,545.34781 c -52.78982,-0.0757 -128.77034,4.87246 -159.43354,8.61466 -3.61033,16.70958 -17.99854,88.74931 -21.72393,190.771 5.87696,51.67399 44.93205,52.76467 68.66756,18.97722 8.72752,-11.60606 94.74871,-26.73789 103.93768,50.93887 11.69795,99.24286 -90.19071,95.2222 -109.24381,76.221 -28.86134,-42.50297 -61.39377,-33.64311 -67.10692,14.79474 -0.18938,32.00211 1.84263,64.90248 4.93157,94.6364 l 482.29589,0 0,-443.34282 c -25.4565,-5.00452 -50.5166,-7.39354 -76.34587,-1.37336 -46.85174,10.93887 -47.88548,49.33879 -25.34456,61.67597 23.46582,12.84259 38.85234,83.19114 -53.31097,91.51514 -117.75261,10.59328 -113.06125,-81.62001 -90.51632,-98.8813 24.52256,-18.77346 12.41459,-58.8084 -14.04563,-62.54991 -9.86916,-1.39984 -25.01184,-1.97223 -42.76115,-1.99761 z"
     id="prawy_bialy_puzel"
     style="fill:#008000;fill-opacity:1;stroke:#ffffff;stroke-width:3;stroke-opacity:1" />
  <path
     d="m 241.35881,98.263816 c -6.60298,13.375274 -18.28518,37.247584 -26.07331,53.077804 -7.78813,15.83022 -14.47575,29.37479 -14.98368,30.05203 -0.42327,0.67723 -1.01585,1.86237 -1.2698,2.5396 -0.25396,0.67723 -0.84655,1.86238 -1.26981,2.53961 -0.42327,0.67723 -1.01584,1.86238 -1.2698,2.53961 -0.33862,0.67723 -1.86238,3.97872 -3.4708,7.28021 -3.21684,6.77229 -4.40199,7.44951 -14.22181,8.38071 -2.79356,0.25396 -8.46534,1.01584 -12.69803,1.69306 -4.14802,0.67724 -10.49705,1.60842 -13.96784,2.11635 -3.47079,0.59257 -8.97329,1.35445 -12.27477,1.69306 -3.21684,0.33863 -8.80398,1.10051 -12.27478,1.69308 -8.38069,1.26981 -20.2322,3.04753 -31.745091,4.65594 -15.576261,2.201 -25.057467,3.64012 -31.745095,4.74061 -3.470809,0.59257 -8.803982,1.26981 -11.851513,1.52376 -3.978708,0.33862 -5.587136,0.84654 -5.756433,1.86238 -0.08466,0.67723 3.809403,5.16388 9.311881,10.49705 5.248534,5.07921 23.195092,22.60251 39.95651,38.94066 16.676761,16.25349 35.469851,34.62331 41.734221,40.63373 l 11.42823,11.08961 -0.59257,5.8411 c -0.25396,3.3015 -1.01585,8.55001 -1.69307,11.85151 -0.67724,3.21682 -1.77773,9.73516 -2.53961,14.3911 -0.76188,4.65596 -1.94703,11.34359 -2.53961,14.81438 -0.59258,3.4708 -1.77772,10.15844 -2.5396,14.81438 -0.76188,4.65595 -1.86239,11.34359 -2.53962,14.81439 -0.59257,3.4708 -1.77772,10.15843 -2.53961,14.81438 -0.76188,4.65595 -1.94703,11.08962 -2.62426,14.39111 -0.67722,3.21684 -1.18514,6.85694 -1.18514,8.0421 0,1.18514 -0.50793,4.7406 -1.18515,8.04208 -2.87823,13.96785 -3.97873,20.99409 -3.3015,21.67132 0.42327,0.42327 2.79357,-0.42327 5.33318,-1.69306 2.5396,-1.35446 8.88863,-4.57131 13.96785,-7.28022 5.16386,-2.62426 13.88319,-7.19555 19.47032,-10.24308 5.58714,-2.96288 13.20595,-6.94159 16.93071,-8.88862 3.72476,-1.86239 10.24308,-5.24854 14.39112,-7.53419 4.23268,-2.20098 12.78269,-6.68763 19.04706,-9.98912 6.26435,-3.30149 15.06834,-7.87278 19.47032,-10.15843 4.40199,-2.3703 10.83566,-5.67178 14.22181,-7.36486 l 6.09505,-3.13218 3.64011,1.86237 c 1.94704,0.9312 4.14803,2.11634 4.82525,2.53962 0.67723,0.42327 1.86239,0.93118 2.53961,1.18515 0.67723,0.33861 4.7406,2.3703 8.88863,4.57129 4.23268,2.28565 12.952,6.85694 19.47032,10.32773 6.51834,3.38615 15.32231,8.0421 19.47034,10.24309 4.23267,2.20099 10.66636,5.58714 14.39111,7.44953 3.72475,1.94703 11.34359,5.92574 16.93072,8.88862 5.58714,3.04753 13.20596,7.02625 16.93076,8.97328 3.72469,1.94703 7.3648,3.80941 8.04207,4.23268 0.67719,0.42327 1.86239,0.93119 2.53958,1.2698 0.67727,0.25397 3.38619,1.60841 5.92576,2.96288 2.53959,1.35445 4.90991,2.20099 5.33317,1.77772 0.67726,-0.67723 -0.42326,-7.70347 -3.30144,-21.67132 -0.67726,-3.30148 -1.1852,-6.85694 -1.1852,-8.04208 0,-1.18516 -0.50793,-4.82526 -1.18512,-8.0421 -0.67727,-3.30149 -1.86239,-9.73516 -2.62424,-14.39111 -1.43914,-8.88863 -3.0476,-17.6926 -4.65598,-26.24262 -0.50793,-2.79357 -1.26979,-7.53416 -1.69305,-10.5817 -0.33868,-3.04753 -1.10054,-7.44952 -1.60847,-9.73516 -0.42326,-2.3703 -1.43913,-8.04209 -2.20098,-12.69805 -0.76186,-4.65594 -1.86239,-11.17428 -2.53959,-14.3911 -0.67726,-3.3015 -1.43912,-8.63467 -1.69304,-11.85151 l -0.59261,-6.0104 12.69806,-12.19012 c 6.94155,-6.77229 25.98863,-25.22678 42.15745,-41.057 16.25347,-15.83022 33.69208,-32.84559 38.77135,-37.75551 10.41241,-10.15842 11.00501,-11.76684 4.14803,-11.76684 -2.201,0 -5.75643,-0.42327 -7.87277,-0.93119 -2.11635,-0.50792 -6.68767,-1.18515 -10.15844,-1.60842 -3.47077,-0.33862 -9.2273,-1.1005 -12.69807,-1.69306 -9.65051,-1.43913 -21.3327,-3.21685 -32.16837,-4.65596 -5.33317,-0.76188 -12.78265,-1.94703 -16.50742,-2.62427 -3.72478,-0.67722 -7.87275,-1.18515 -9.2272,-1.18515 -1.35446,0 -5.75651,-0.59257 -9.73521,-1.18514 -12.0208,-2.03168 -19.55499,-3.13218 -27.08915,-3.97872 -13.1213,-1.43912 -12.78269,-1.18515 -17.77725,-11.59754 -2.45497,-4.99456 -4.82526,-9.65051 -5.24854,-10.32775 -0.42326,-0.67723 -1.01583,-1.86238 -1.26979,-2.5396 -1.01585,-2.28564 -28.35896,-57.98772 -29.20549,-59.25751 -0.42327,-0.67724 -1.01585,-1.86239 -1.26981,-2.53961 -3.21683,-7.78813 -22.26389,-44.443139 -23.19509,-44.612452 -0.84653,-0.169305 -5.07921,7.449519 -13.20596,24.126278 z"
     id="path10"
     inkscape:connector-curvature="0"
     style="fill:#008000;stroke:none;stroke-width:0.84653598"
     sodipodi:nodetypes="cscsccccccccccccccccccscscscscccccccsccccccccccccsccccscccccsccccccsscccssccccccccc" />
</svg>
